<svg width="249" height="249" viewBox="0 0 249 249" fill="none" xmlns="http://www.w3.org/2000/svg">
<path d="M11.4191 145.927C8.19435 129.139 8.75166 111.844 13.0505 95.2993C17.3493 78.7544 25.2816 63.3756 36.2704 50.2813C47.2592 37.1871 61.0283 26.7066 76.5763 19.6021C92.1243 12.4976 109.06 8.94766 126.153 9.21053C143.245 9.47341 160.064 13.5424 175.386 21.1217C190.708 28.701 204.148 39.6 214.729 53.0259C225.31 66.4519 232.766 82.0674 236.554 98.7367C240.342 115.406 240.367 132.71 236.627 149.39L219.291 145.504C222.453 131.4 222.432 116.768 219.229 102.674C216.026 88.579 209.722 75.3753 200.775 64.023C191.828 52.6707 180.464 43.4551 167.508 37.0465C154.553 30.6378 140.332 27.1973 125.879 26.975C111.427 26.7527 97.1068 29.7543 83.9603 35.7615C70.8137 41.7687 59.1712 50.6305 49.8797 61.7023C40.5881 72.7741 33.881 85.7777 30.2461 99.7672C26.6112 113.757 26.14 128.38 28.8667 142.575L11.4191 145.927Z" fill="#E3F6FB"/>
<path d="M11.4191 145.927C8.22597 129.304 8.74074 112.181 12.9267 95.7801C17.1126 79.3791 24.8666 64.104 35.6354 51.0446C46.4042 37.9853 59.9225 27.4634 75.2257 20.2298C90.529 12.9962 107.24 9.22904 124.167 9.19713L124.201 27.2352C109.928 27.2621 95.8378 30.4386 82.9343 36.5379C70.0308 42.6372 58.6324 51.509 49.5523 62.5205C40.4721 73.532 33.9341 86.4118 30.4045 100.241C26.875 114.07 26.441 128.508 29.1334 142.524L11.4191 145.927Z" fill="#5DCCFC"/>
<path d="M125.108 75.273L130.971 109.619C131.559 113.062 129.49 116.404 126.145 117.412C124.872 117.796 123.502 117.801 122.224 117.434C118.713 116.426 116.493 112.912 117.141 109.318L123.277 75.2645C123.357 74.822 123.742 74.5 124.191 74.5C124.644 74.5 125.031 74.8265 125.108 75.273Z" fill="#5DCCFC" stroke="#5DCCFC"/>
<path d="M92.0625 42.3557C92.8801 42.034 93.7024 41.7246 94.5293 41.4275L97.9072 50.8293C97.1741 51.0926 96.4451 51.367 95.7202 51.6522L92.0625 42.3557Z" fill="#B1B1B1"/>
<path d="M153.12 41.0879C153.951 41.3753 154.776 41.6752 155.598 41.9874L152.048 51.3257C151.32 51.0489 150.588 50.783 149.852 50.5282L153.12 41.0879Z" fill="#B1B1B1"/>
<path d="M107.54 37.8512C107.982 37.7655 108.424 37.6831 108.868 37.6042L109.919 43.5071C109.506 43.5806 109.093 43.6573 108.681 43.7372L107.54 37.8512Z" fill="#B1B1B1"/>
<path d="M138.011 37.3137C138.455 37.3838 138.899 37.4572 139.343 37.5341L138.319 43.4418C137.906 43.3701 137.492 43.3017 137.078 43.2364L138.011 37.3137Z" fill="#B1B1B1"/>
<path d="M123.411 36.2452C123.861 36.2406 124.311 36.2395 124.761 36.2418L124.722 43.948C124.311 43.9459 123.9 43.9469 123.489 43.9511L123.411 36.2452Z" fill="#B1B1B1"/>
<path d="M200.941 80.9167C201.374 81.6812 201.795 82.4522 202.205 83.2294L193.368 87.8892C193.005 87.2002 192.631 86.5167 192.247 85.8389L200.941 80.9167Z" fill="#B1B1B1"/>
<path d="M168.882 48.3549C169.27 48.5828 169.657 48.8136 170.041 49.0474L166.928 54.1712C166.569 53.9533 166.209 53.7382 165.847 53.5258L168.882 48.3549Z" fill="#B1B1B1"/>
<path d="M192.1 68.0956C192.387 68.4422 192.672 68.7909 192.954 69.1418L188.28 72.8976C188.017 72.5706 187.752 72.2456 187.484 71.9226L192.1 68.0956Z" fill="#B1B1B1"/>
<path d="M181.852 57.6421C182.192 57.9363 182.531 58.2331 182.867 58.5324L177.743 64.2881C177.436 64.0149 177.127 63.7441 176.816 63.4757L181.852 57.6421Z" fill="#B1B1B1"/>
<path d="M210.762 141.069C210.595 141.932 210.415 142.792 210.222 143.649L200.476 141.455C200.647 140.695 200.807 139.932 200.955 139.168L210.762 141.069Z" fill="#B1B1B1"/>
<path d="M207.524 95.4891C207.672 95.9145 207.816 96.341 207.956 96.7686L202.261 98.6435C202.13 98.245 201.996 97.8475 201.859 97.4511L207.524 95.4891Z" fill="#B1B1B1"/>
<path d="M212.363 125.578C212.357 126.028 212.347 126.478 212.334 126.928L206.34 126.75C206.353 126.33 206.362 125.911 206.368 125.491L212.363 125.578Z" fill="#B1B1B1"/>
<path d="M211.358 110.973C211.426 111.418 211.49 111.864 211.552 112.31L203.917 113.36C203.861 112.953 203.802 112.546 203.74 112.14L211.358 110.973Z" fill="#B1B1B1"/>
<path d="M46.2946 83.4434C46.7022 82.6652 47.1215 81.893 47.5523 81.1273L56.2593 86.0255C55.8773 86.7044 55.5056 87.3889 55.1442 88.0789L46.2946 83.4434Z" fill="#B1B1B1"/>
<path d="M55.0497 69.9087C55.3277 69.5547 55.6085 69.2028 55.892 68.853L60.5498 72.6284C60.2856 72.9543 60.0239 73.2823 59.7648 73.6122L55.0497 69.9087Z" fill="#B1B1B1"/>
<path d="M77.7372 49.5608C78.1193 49.3228 78.5032 49.0877 78.8889 48.8555L81.981 53.9924C81.6216 54.2087 81.2638 54.4278 80.9077 54.6497L77.7372 49.5608Z" fill="#B1B1B1"/>
<path d="M65.9987 58.3079C66.3361 58.0098 66.6758 57.7144 67.0177 57.4215L72.0308 63.2743C71.7188 63.5416 71.4088 63.8112 71.101 64.0832L65.9987 58.3079Z" fill="#B1B1B1"/>
<path d="M37.8496 141.065C37.6824 140.202 37.5281 139.337 37.3868 138.47L47.2469 136.864C47.3722 137.632 47.509 138.399 47.6572 139.164L37.8496 141.065Z" fill="#B1B1B1"/>
<path d="M36.2432 125.025C36.2396 124.575 36.2393 124.125 36.2426 123.675L42.2381 123.718C42.2351 124.137 42.2353 124.557 42.2388 124.977L36.2432 125.025Z" fill="#B1B1B1"/>
<path d="M41.2715 94.9676C41.4214 94.5431 41.5747 94.1198 41.7312 93.6977L47.3531 95.7816C47.2072 96.175 47.0644 96.5695 46.9247 96.9651L41.2715 94.9676Z" fill="#B1B1B1"/>
<path d="M37.5584 109.128C37.636 108.684 37.717 108.242 37.8014 107.799L45.3711 109.244C45.2941 109.647 45.2202 110.051 45.1494 110.456L37.5584 109.128Z" fill="#B1B1B1"/>
<path d="M54.5527 141.239C52.249 141.239 50.9023 139.339 50.9023 136.058C50.9023 132.797 52.2627 130.896 54.5527 130.896C56.8291 130.896 58.1895 132.804 58.1895 136.071C58.1895 139.346 56.8496 141.239 54.5527 141.239ZM54.5527 139.899C55.8926 139.899 56.6445 138.56 56.6445 136.058C56.6445 133.583 55.8789 132.236 54.5527 132.236C53.2266 132.236 52.4473 133.59 52.4473 136.058C52.4473 138.553 53.2129 139.899 54.5527 139.899Z" fill="black"/>
<path d="M59.9844 86.9863C59.9844 85.168 61.3584 83.8965 63.2998 83.8965C65.1729 83.8965 66.5537 85.0859 66.5537 86.7129C66.5537 87.7588 66.0479 88.6133 64.3936 90.2881L62.1992 92.5098V92.626H66.7109V94H60.0664V92.8926L63.4023 89.4199C64.7217 88.0459 65.043 87.5264 65.043 86.8018C65.043 85.8994 64.2705 85.2227 63.252 85.2227C62.165 85.2227 61.4336 85.9336 61.4336 86.9863V87.0068H59.9844V86.9863ZM72.207 94.2393C69.9033 94.2393 68.5566 92.3389 68.5566 89.0576C68.5566 85.7969 69.917 83.8965 72.207 83.8965C74.4834 83.8965 75.8438 85.8037 75.8438 89.0713C75.8438 92.3457 74.5039 94.2393 72.207 94.2393ZM72.207 92.8994C73.5469 92.8994 74.2988 91.5596 74.2988 89.0576C74.2988 86.583 73.5332 85.2363 72.207 85.2363C70.8809 85.2363 70.1016 86.5898 70.1016 89.0576C70.1016 91.5527 70.8672 92.8994 72.207 92.8994Z" fill="black"/>
<path d="M94.6055 66V64.0928H89.793V62.6709C90.6748 61.0576 92.1445 58.7676 93.9014 56.1357H96.082V62.7256H97.4424V64.0928H96.082V66H94.6055ZM91.2627 62.6641V62.7598H94.626V57.4824H94.5371C93.5596 58.8975 92.4248 60.6475 91.2627 62.6641ZM102.795 66.2393C100.491 66.2393 99.1445 64.3389 99.1445 61.0576C99.1445 57.7969 100.505 55.8965 102.795 55.8965C105.071 55.8965 106.432 57.8037 106.432 61.0713C106.432 64.3457 105.092 66.2393 102.795 66.2393ZM102.795 64.8994C104.135 64.8994 104.887 63.5596 104.887 61.0576C104.887 58.583 104.121 57.2363 102.795 57.2363C101.469 57.2363 100.689 58.5898 100.689 61.0576C100.689 63.5527 101.455 64.8994 102.795 64.8994Z" fill="black"/>
<path d="M142.71 66.2393C141.247 66.2393 140.112 65.5146 139.47 64.1953C139.066 63.4023 138.868 62.3975 138.868 61.1943C138.868 57.8516 140.311 55.8965 142.778 55.8965C144.521 55.8965 145.841 56.9355 146.142 58.5488H144.604C144.357 57.7422 143.66 57.25 142.765 57.25C141.247 57.25 140.372 58.624 140.338 60.9961H140.454C140.933 60.0459 141.876 59.5059 143.045 59.5059C144.918 59.5059 146.285 60.8867 146.285 62.7939C146.285 64.8037 144.802 66.2393 142.71 66.2393ZM142.696 64.8926C143.872 64.8926 144.768 64.0039 144.768 62.8418C144.768 61.6455 143.913 60.7979 142.703 60.7979C141.5 60.7979 140.625 61.6455 140.625 62.8145C140.625 63.9902 141.521 64.8926 142.696 64.8926ZM151.713 66.2393C149.409 66.2393 148.062 64.3389 148.062 61.0576C148.062 57.7969 149.423 55.8965 151.713 55.8965C153.989 55.8965 155.35 57.8037 155.35 61.0713C155.35 64.3457 154.01 66.2393 151.713 66.2393ZM151.713 64.8994C153.053 64.8994 153.805 63.5596 153.805 61.0576C153.805 58.583 153.039 57.2363 151.713 57.2363C150.387 57.2363 149.607 58.5898 149.607 61.0576C149.607 63.5527 150.373 64.8994 151.713 64.8994Z" fill="black"/>
<path d="M176.607 94.2393C174.413 94.2393 172.902 93.0635 172.902 91.3613C172.902 90.1035 173.729 89.1055 174.994 88.8457V88.7295C173.969 88.4697 173.299 87.6152 173.299 86.5557C173.299 84.9971 174.673 83.8965 176.607 83.8965C178.542 83.8965 179.916 84.9971 179.916 86.5557C179.916 87.6221 179.26 88.4629 178.221 88.7295V88.8457C179.485 89.085 180.319 90.083 180.319 91.3545C180.319 93.0635 178.802 94.2393 176.607 94.2393ZM176.607 92.9678C177.872 92.9678 178.747 92.2568 178.747 91.2314C178.747 90.1992 177.872 89.4883 176.607 89.4883C175.343 89.4883 174.468 90.1992 174.468 91.2314C174.468 92.2568 175.343 92.9678 176.607 92.9678ZM176.607 88.2373C177.681 88.2373 178.412 87.6152 178.412 86.7061C178.412 85.7832 177.688 85.1543 176.607 85.1543C175.527 85.1543 174.81 85.7832 174.81 86.7061C174.81 87.6152 175.534 88.2373 176.607 88.2373ZM185.754 94.2393C183.45 94.2393 182.104 92.3389 182.104 89.0576C182.104 85.7969 183.464 83.8965 185.754 83.8965C188.03 83.8965 189.391 85.8037 189.391 89.0713C189.391 92.3457 188.051 94.2393 185.754 94.2393ZM185.754 92.8994C187.094 92.8994 187.846 91.5596 187.846 89.0576C187.846 86.583 187.08 85.2363 185.754 85.2363C184.428 85.2363 183.648 86.5898 183.648 89.0576C183.648 91.5527 184.414 92.8994 185.754 92.8994Z" fill="black"/>
<path d="M176.432 141V132.783H176.315L173.841 134.533V132.968L176.438 131.136H177.963V141H176.432ZM184.32 141.239C182.017 141.239 180.67 139.339 180.67 136.058C180.67 132.797 182.03 130.896 184.32 130.896C186.597 130.896 187.957 132.804 187.957 136.071C187.957 139.346 186.617 141.239 184.32 141.239ZM184.32 139.899C185.66 139.899 186.412 138.56 186.412 136.058C186.412 133.583 185.646 132.236 184.32 132.236C182.994 132.236 182.215 133.59 182.215 136.058C182.215 138.553 182.98 139.899 184.32 139.899ZM193.412 141.239C191.108 141.239 189.762 139.339 189.762 136.058C189.762 132.797 191.122 130.896 193.412 130.896C195.688 130.896 197.049 132.804 197.049 136.071C197.049 139.346 195.709 141.239 193.412 141.239ZM193.412 139.899C194.752 139.899 195.504 138.56 195.504 136.058C195.504 133.583 194.738 132.236 193.412 132.236C192.086 132.236 191.307 133.59 191.307 136.058C191.307 138.553 192.072 139.899 193.412 139.899Z" fill="black"/>
<path d="M11.5056 146.372C8.6786 131.963 8.63674 117.145 11.3823 102.72L29.0498 106.082C26.7336 118.252 26.7689 130.753 29.1539 142.91L11.5056 146.372Z" fill="#EE5555"/>
<path d="M101.812 166V161.641H90.8125V158.391C92.8281 154.703 96.1875 149.469 100.203 143.453H105.188V158.516H108.297V161.641H105.188V166H101.812ZM94.1719 158.375V158.594H101.859V146.531H101.656C99.4219 149.766 96.8281 153.766 94.1719 158.375ZM120.375 166.547C115.891 166.547 112.719 163.781 112.516 159.828H115.844C116.109 162.016 117.938 163.469 120.406 163.469C123.219 163.469 125.109 161.609 125.109 158.797C125.109 155.969 123.203 154.047 120.453 154.047C118.516 154.047 116.953 154.906 116.078 156.359H112.875L114.062 143.453H127.219V146.578H116.797L116.203 153.188H116.469C117.5 151.859 119.094 151.141 121.234 151.141C125.516 151.141 128.531 154.266 128.531 158.703C128.531 163.375 125.234 166.547 120.375 166.547ZM141.547 148.562C141.547 151.844 139.516 154.125 136.578 154.125C133.656 154.125 131.609 151.844 131.609 148.562C131.609 145.281 133.641 143 136.578 143C139.516 143 141.547 145.266 141.547 148.562ZM136.578 151.688C137.859 151.688 138.703 150.453 138.703 148.547C138.703 146.609 137.891 145.438 136.578 145.438C135.281 145.438 134.453 146.641 134.453 148.547C134.453 150.453 135.297 151.688 136.578 151.688ZM137 166H133.578L142.156 154.219L149.656 143.453H153.062L144.344 155.391L137 166ZM154.938 160.875C154.938 164.172 152.906 166.453 149.969 166.453C147.031 166.453 144.984 164.172 144.984 160.875C144.984 157.594 147.031 155.328 149.969 155.328C152.906 155.328 154.938 157.594 154.938 160.875ZM149.969 164.016C151.25 164.016 152.078 162.781 152.078 160.875C152.078 158.938 151.266 157.766 149.969 157.766C148.672 157.766 147.844 158.969 147.844 160.875C147.844 162.781 148.688 164.016 149.969 164.016Z" fill="#2D2D2D"/>
</svg>
